<?xml version="1.0" standalone="no"?><!DOCTYPE svg PUBLIC "-//W3C//DTD SVG 1.1//EN" "http://www.w3.org/Graphics/SVG/1.1/DTD/svg11.dtd"><svg height="1024" node-id="1" sillyvg="true" template-height="1024" template-width="1024" version="1.1" viewBox="0 0 1024 1024" width="1024" xmlns="http://www.w3.org/2000/svg" xmlns:xlink="http://www.w3.org/1999/xlink"><defs node-id="22"></defs><path d="M 417.53 362.19 C 424.35 339.67 437.64 317.34 458.99 305.90 C 471.55 299.16 484.85 297.49 498.51 301.67 C 512.01 305.80 521.93 314.10 531.43 324.19 C 546.47 318.62 562.49 319.26 577.11 325.97 C 590.19 331.96 601.00 342.72 605.93 356.38 C 611.10 370.71 608.53 380.77 603.41 394.42 C 613.09 406.85 618.18 415.81 623.81 430.56 L 773.89 430.69 C 783.95 430.71 822.34 429.65 828.77 431.53 C 831.17 438.66 781.47 637.09 773.23 653.80 C 767.72 653.50 762.21 653.50 756.69 653.47 C 755.35 661.25 753.45 668.02 748.86 674.55 C 780.64 673.12 812.64 674.08 844.46 673.75 C 852.63 673.64 860.79 673.49 868.95 673.30 C 872.72 673.21 877.16 672.44 880.81 673.17 C 882.91 677.22 882.74 701.18 881.38 705.81 C 881.21 706.41 880.98 706.77 880.54 707.21 C 876.25 708.26 870.96 707.62 866.53 707.62 C 859.53 707.60 821.08 706.80 818.18 708.10 C 818.97 712.66 818.90 717.72 819.12 722.35 C 819.79 735.94 819.80 749.56 820.11 763.16 C 820.69 791.65 820.99 820.13 821.03 848.62 C 821.05 860.16 821.62 871.91 821.28 883.42 C 821.24 884.89 821.10 886.41 820.45 887.75 C 819.23 887.52 818.57 887.77 817.88 886.59 C 817.06 885.17 817.23 881.91 817.18 880.24 C 816.67 861.47 817.08 842.53 817.05 823.74 C 817.02 803.00 816.55 782.32 816.21 761.59 C 816.05 750.51 815.74 739.44 815.25 728.37 C 815.00 722.49 814.33 716.43 814.45 710.57 C 814.47 709.52 814.68 708.84 815.10 707.91 C 808.48 707.41 801.65 707.75 795.01 707.77 C 782.67 707.84 770.34 707.85 758.00 707.79 C 732.43 707.48 706.86 707.50 681.29 707.85 C 673.11 708.03 664.74 707.85 656.59 708.45 C 657.35 712.78 658.15 717.11 658.98 721.43 L 659.80 721.52 C 677.73 723.49 698.95 722.39 717.15 721.94 C 734.12 721.41 751.09 721.41 768.05 721.93 C 777.88 722.15 788.89 721.72 798.52 723.70 C 800.73 724.15 802.70 724.65 804.27 726.36 C 805.37 727.56 805.90 729.42 806.13 730.99 C 807.67 741.31 807.53 752.41 807.89 762.87 C 808.66 784.32 809.08 805.78 809.15 827.25 C 809.27 842.44 810.90 859.28 808.99 874.28 C 808.66 876.83 808.15 879.78 806.70 881.93 C 797.38 886.89 676.93 885.55 656.18 885.64 C 651.07 885.66 633.94 886.94 630.37 886.02 C 629.20 885.72 629.12 885.69 628.45 884.70 C 628.77 883.70 628.76 883.23 629.84 882.82 C 632.79 881.70 657.46 881.94 662.26 881.93 C 681.36 881.88 794.59 883.35 803.61 878.34 C 805.99 873.59 805.60 866.07 805.75 860.83 C 806.18 846.08 805.28 831.14 805.07 816.38 C 804.75 793.84 804.58 771.30 803.42 748.79 C 803.14 743.36 803.57 736.41 802.01 731.29 C 801.65 730.12 801.19 729.41 800.04 728.90 C 787.49 723.40 715.42 726.30 697.24 726.51 C 684.86 726.68 672.48 726.46 660.12 725.87 C 662.09 739.94 665.25 754.00 667.90 767.97 C 671.51 787.03 674.85 806.26 678.74 825.26 C 674.16 826.88 669.56 828.15 664.87 829.35 C 663.18 844.75 654.38 856.94 642.45 866.44 C 633.06 873.91 617.48 883.21 605.64 885.53 C 595.72 887.48 576.30 886.18 565.56 886.13 L 489.86 886.07 C 473.23 886.05 456.61 886.15 439.98 886.35 C 430.01 886.48 419.28 887.39 409.38 886.16 C 391.49 883.94 373.19 873.75 362.27 859.40 C 355.35 850.31 352.86 841.97 353.02 830.66 C 347.80 828.57 342.64 826.35 337.77 823.51 C 338.17 814.86 340.52 805.91 342.10 797.39 L 350.13 753.49 C 351.72 745.05 353.83 736.47 354.87 727.96 C 324.76 728.01 294.65 728.30 264.55 728.82 C 246.09 729.02 227.53 728.86 209.09 729.59 C 208.31 734.75 208.53 740.12 208.47 745.32 L 208.09 770.43 C 207.74 788.53 206.97 806.59 206.88 824.70 C 206.79 844.08 207.39 863.55 206.89 882.92 C 246.03 882.43 285.17 882.17 324.32 882.14 L 358.26 882.15 C 363.56 882.15 369.09 881.76 374.36 882.13 C 376.00 882.25 377.31 882.69 378.75 883.44 L 379.30 884.33 C 378.29 885.57 377.05 885.81 375.48 885.96 C 366.75 886.83 355.69 886.00 346.70 886.05 C 322.61 886.22 298.51 886.23 274.41 886.08 L 225.55 886.56 C 218.81 886.58 210.80 887.41 204.21 885.95 L 204.29 885.17 L 203.70 885.78 C 202.97 884.52 203.01 883.39 202.97 881.94 C 202.02 849.76 203.63 817.28 203.98 785.08 C 204.11 771.78 204.33 758.47 204.66 745.16 C 204.78 739.54 204.09 732.31 205.54 726.97 C 205.70 726.41 205.65 726.56 206.31 726.26 C 208.88 725.08 342.81 722.81 356.13 723.91 C 357.07 718.79 357.92 713.63 359.08 708.55 C 338.75 709.20 318.43 709.03 298.10 709.30 L 199.70 711.15 C 199.35 726.92 199.92 742.76 200.08 758.53 C 200.18 780.86 200.41 803.18 200.78 825.50 L 201.46 865.24 C 201.50 870.57 201.81 875.98 201.58 881.30 C 201.49 883.35 201.30 885.06 200.27 886.85 L 199.30 887.17 C 197.65 885.76 197.42 883.67 197.23 881.58 C 196.75 876.39 197.12 870.90 197.14 865.67 L 197.02 840.04 L 195.99 765.52 C 195.90 747.58 196.72 729.14 195.50 711.27 C 190.13 711.53 184.81 711.60 179.44 711.56 L 181.16 835.74 L 181.58 866.20 C 181.66 871.25 182.07 876.35 181.94 881.40 C 181.90 883.19 181.70 884.88 181.06 886.57 L 180.50 887.05 C 179.12 886.15 178.56 884.70 178.19 883.10 C 177.15 878.72 177.97 857.46 177.81 851.17 L 175.46 711.72 C 163.53 711.81 146.71 713.35 135.44 711.84 C 134.61 707.26 132.39 682.12 134.31 678.82 C 140.65 677.58 147.38 677.92 153.81 677.88 L 182.97 677.79 L 274.33 677.03 C 268.59 669.33 265.86 661.15 265.96 651.54 C 257.35 651.02 248.63 651.22 240.00 651.22 C 236.00 651.23 231.69 651.62 227.75 650.98 C 224.66 645.75 219.24 617.69 217.38 609.98 C 207.72 570.75 198.34 531.46 189.22 492.11 C 187.73 485.90 174.21 434.18 174.88 431.59 C 174.92 431.43 175.00 431.27 175.07 431.11 C 194.37 429.58 214.72 430.70 234.16 430.79 L 329.97 430.84 C 333.83 430.84 365.80 430.34 367.20 430.70 C 367.52 430.78 367.79 431.00 368.09 431.15 C 368.30 431.94 368.52 432.10 368.12 432.89 C 367.66 433.79 367.09 434.34 366.14 434.73 C 364.13 435.56 344.77 434.65 340.98 434.64 L 233.18 434.63 L 199.90 434.59 C 193.13 434.58 186.15 434.23 179.41 434.92 L 210.45 564.29 C 217.16 591.91 224.57 619.55 230.47 647.35 C 242.40 647.29 254.33 647.35 266.25 647.52 C 267.36 642.63 268.62 637.95 270.19 633.18 C 261.75 633.06 253.32 633.41 244.88 633.45 C 235.63 599.08 228.23 564.18 219.72 529.61 C 217.03 518.64 199.94 455.02 200.29 450.45 C 200.87 449.46 200.88 449.24 202.07 448.98 C 206.84 447.97 213.06 448.68 217.99 448.69 L 254.12 448.84 L 376.01 449.03 C 375.82 421.74 378.53 396.41 398.59 375.85 C 404.12 370.18 410.64 366.00 417.53 362.19 Z M 362.69 689.37 C 365.57 676.60 368.26 663.80 370.74 650.95 C 371.87 645.32 372.61 639.09 374.16 633.62 C 374.59 632.09 375.07 631.02 376.06 629.79 C 377.12 629.32 377.06 629.31 378.15 629.69 C 378.76 631.64 378.43 633.61 378.07 635.59 C 376.76 642.77 374.89 649.86 373.43 657.01 L 361.37 716.42 C 354.36 751.32 348.18 786.36 341.54 821.33 C 363.64 831.44 386.99 834.52 411.00 836.10 L 409.95 708.60 C 409.89 693.85 408.71 678.71 409.45 664.00 C 409.51 662.83 409.68 661.45 410.30 660.43 C 410.54 660.04 410.98 659.39 411.37 659.10 C 415.21 656.22 507.20 656.97 519.12 656.59 C 539.97 656.38 560.82 656.46 581.66 656.82 C 589.13 656.93 597.02 656.18 604.41 656.96 C 606.03 663.54 605.02 685.50 605.00 694.14 C 605.02 723.71 604.84 753.28 604.47 782.85 C 604.27 795.46 603.97 808.04 604.00 820.66 C 604.02 826.24 603.77 831.97 604.27 837.52 C 614.33 834.94 625.10 834.02 635.35 832.33 C 648.54 830.10 661.51 826.96 674.26 822.91 C 671.81 811.16 669.92 799.29 667.63 787.51 L 647.60 683.04 C 645.36 671.18 643.03 659.34 640.60 647.52 C 639.69 642.99 637.82 636.81 637.56 632.34 C 637.50 631.33 637.63 630.72 638.14 629.86 C 638.25 629.68 638.38 629.52 638.50 629.35 L 639.33 629.26 C 640.50 630.57 641.03 631.82 641.54 633.49 C 643.69 640.42 644.68 648.12 646.10 655.25 C 648.46 667.09 650.99 678.90 653.23 690.76 C 680.95 689.22 722.71 697.69 743.20 674.49 C 743.59 674.05 743.98 673.60 744.35 673.14 C 744.72 672.68 745.08 672.21 745.43 671.74 C 745.78 671.26 746.12 670.77 746.44 670.28 C 746.77 669.78 747.08 669.28 747.38 668.77 C 747.68 668.26 747.96 667.74 748.24 667.22 C 748.51 666.70 748.77 666.16 749.01 665.63 C 749.26 665.09 749.49 664.55 749.71 664.00 C 749.93 663.45 750.14 662.89 750.33 662.33 C 750.52 661.77 750.69 661.21 750.86 660.64 C 751.02 660.07 751.17 659.50 751.30 658.92 C 751.43 658.35 751.55 657.77 751.66 657.19 C 751.76 656.61 751.85 656.02 751.92 655.43 C 752.00 654.85 752.06 654.26 752.10 653.67 C 752.15 653.08 752.18 652.49 752.19 651.90 C 752.21 651.31 752.21 650.72 752.20 650.13 C 752.18 649.53 752.15 648.94 752.11 648.36 C 749.98 621.06 718.86 586.89 698.47 569.68 C 654.55 532.59 592.44 501.82 534.99 495.21 C 525.36 494.10 514.80 493.23 505.14 494.16 C 504.98 494.17 504.82 494.21 504.66 494.23 C 491.72 494.80 478.55 495.99 465.83 498.49 C 410.30 509.38 345.33 542.41 306.94 584.46 C 291.93 600.90 268.91 631.41 269.95 654.50 C 270.37 663.90 274.34 672.41 281.36 678.67 C 295.57 691.34 318.87 692.82 336.91 691.62 C 345.52 691.05 354.08 689.93 362.69 689.37 Z M 368.43 531.65 C 380.99 524.33 394.16 518.31 407.47 512.50 C 410.58 511.14 419.38 508.39 421.03 505.97 C 419.27 503.65 412.09 502.32 409.26 500.98 C 391.27 492.44 378.61 473.11 376.82 453.37 C 372.65 453.26 368.50 453.17 364.34 453.25 C 363.11 453.35 362.52 453.13 361.62 454.04 C 357.60 468.95 353.67 483.88 349.81 498.84 C 347.07 509.46 343.81 520.18 342.68 531.12 C 345.20 535.26 348.15 538.46 352.29 541.09 L 363.96 533.93 C 365.55 527.07 376.31 487.07 379.56 483.27 L 380.57 483.50 L 379.93 482.95 L 380.97 482.50 C 381.80 483.20 381.81 483.27 381.93 484.32 C 382.44 489.18 379.45 495.80 377.91 500.38 C 374.78 510.75 372.06 521.46 368.43 531.65 Z M 138.63 708.10 L 289.38 705.46 C 312.88 704.55 336.44 705.52 359.92 704.54 C 360.69 700.85 361.50 697.17 362.34 693.50 C 337.45 696.62 301.39 699.88 280.45 683.66 C 279.34 682.81 278.25 681.92 277.18 681.00 L 208.92 681.25 C 193.49 681.51 178.05 681.68 162.62 681.75 C 154.33 681.80 145.86 681.52 137.58 682.02 C 138.18 690.71 138.17 699.41 138.63 708.10 Z M 600.75 508.03 C 612.14 511.63 624.25 517.46 634.61 523.37 L 636.96 518.60 C 643.97 504.51 650.35 490.09 656.92 475.79 C 660.29 468.45 664.23 461.13 667.23 453.66 L 641.28 453.42 C 636.28 453.37 631.08 453.05 626.10 453.49 C 624.38 477.15 617.57 491.41 600.75 508.03 Z M 658.45 535.82 C 659.17 534.10 659.84 532.35 660.61 530.65 C 672.80 504.89 685.19 479.23 697.78 453.67 C 689.01 453.50 680.24 453.43 671.47 453.46 C 667.54 464.08 662.06 474.53 657.29 484.83 C 651.10 498.19 645.17 512.02 638.33 525.05 C 645.16 528.47 651.77 532.15 658.45 535.82 Z M 480.45 492.55 C 489.32 491.18 498.06 490.50 507.02 490.08 C 515.65 489.97 524.17 490.35 532.78 490.93 C 533.08 484.26 532.94 477.59 528.13 472.36 C 523.60 467.43 515.71 465.19 509.13 465.08 C 507.68 465.06 506.22 465.11 504.77 465.17 C 497.19 466.45 489.11 468.58 484.45 475.28 C 480.84 480.46 480.68 486.49 480.45 492.55 Z M 569.11 486.77 C 558.79 488.67 546.81 488.92 536.69 485.87 L 537.17 491.14 C 548.93 493.21 560.81 495.31 572.30 498.56 L 572.38 498.34 C 572.64 498.41 572.90 498.49 573.17 498.54 C 573.36 498.57 573.56 498.56 573.75 498.58 L 574.05 498.29 C 572.59 494.40 571.05 490.45 569.11 486.77 Z M 578.41 500.27 C 584.09 502.17 589.78 504.04 595.38 506.17 L 596.51 506.40 C 597.24 504.52 595.53 501.52 594.74 499.74 C 592.21 494.05 589.05 489.27 583.05 486.80 C 580.69 485.84 578.36 485.67 575.85 485.65 L 573.81 486.20 C 573.24 488.82 577.45 496.23 578.25 499.62 L 578.41 500.27 Z M 448.80 484.15 C 441.79 485.12 435.80 488.46 431.44 494.13 C 428.76 497.60 427.01 501.51 425.28 505.50 C 433.58 502.97 442.06 500.79 450.27 498.03 L 450.87 497.51 C 450.99 495.50 450.86 493.10 451.83 491.30 L 453.00 490.82 C 453.67 491.11 454.03 491.06 454.32 491.81 C 454.90 493.36 454.67 495.41 454.66 497.05 C 461.03 495.55 467.38 494.05 473.81 492.82 C 467.75 491.01 453.03 484.06 448.80 484.15 Z M 871.18 677.22 C 847.82 678.30 824.24 677.82 800.86 677.86 C 782.70 677.90 764.40 678.60 746.26 677.91 C 720.96 701.26 685.50 693.93 654.07 694.77 C 654.62 698.05 655.20 701.32 655.81 704.59 L 663.12 704.45 C 700.71 703.37 738.29 704.00 775.89 703.81 C 809.98 703.64 844.27 702.59 878.35 703.47 C 878.32 694.78 878.19 686.10 877.97 677.42 C 875.72 677.31 873.42 677.10 871.18 677.22 Z M 626.16 449.41 L 737.82 449.91 L 773.90 449.85 C 780.43 449.84 787.23 449.50 793.72 450.16 C 795.69 450.36 797.32 450.92 798.77 452.31 C 800.63 454.11 800.95 455.93 800.89 458.40 C 800.68 466.76 797.17 476.23 795.08 484.33 L 784.42 526.33 C 779.47 546.59 774.62 566.88 769.88 587.20 C 767.31 598.12 765.06 609.18 761.99 619.97 C 761.10 623.09 759.96 627.76 757.45 629.95 C 755.90 631.30 753.89 631.80 751.97 632.39 C 754.04 637.97 755.33 643.62 756.39 649.47 C 759.45 649.51 768.69 650.60 770.95 648.69 L 771.61 646.87 C 785.08 601.08 797.28 554.95 808.21 508.48 C 814.05 483.98 820.43 459.31 825.20 434.58 C 803.16 433.78 781.08 434.03 759.02 434.03 L 664.23 434.08 C 651.04 434.10 637.79 434.54 624.61 434.25 C 624.98 439.36 626.15 444.25 626.16 449.41 Z M 555.33 660.23 C 542.76 660.86 530.05 660.50 517.46 660.55 L 453.25 661.04 C 440.06 661.18 426.52 660.86 413.40 662.19 C 412.51 671.72 413.02 681.56 413.17 691.12 L 413.74 732.05 L 414.73 820.27 C 415.01 841.13 415.61 862.04 415.52 882.91 C 431.03 882.48 446.60 882.71 462.12 882.53 L 599.75 882.11 C 600.15 873.54 599.89 864.85 599.96 856.26 L 600.46 791.89 C 601.01 764.03 601.25 736.17 601.17 708.31 C 601.25 692.49 601.91 676.38 601.07 660.58 C 586.08 659.55 570.35 659.59 555.33 660.23 Z" fill="#010101" fill-rule="nonzero" node-id="24" stroke="none" target-height="590.279" target-width="750.52" target-x="132.394" target-y="297.487"></path><path d="M 382.93 495.81 C 387.33 496.28 396.17 500.76 398.94 504.25 C 399.56 505.02 399.11 505.84 398.96 506.75 C 395.49 506.93 391.00 504.07 388.17 502.11 C 385.49 500.25 383.56 499.15 382.93 495.81 Z" fill="#010101" fill-rule="nonzero" node-id="26" stroke="none" target-height="11.123993" target-width="16.630981" target-x="382.92502" target-y="495.805"></path><path d="M 779.14 166.21 C 781.57 166.10 784.01 166.10 786.45 166.21 C 788.88 166.32 791.31 166.54 793.72 166.87 C 796.14 167.20 798.54 167.65 800.91 168.20 C 803.29 168.75 805.63 169.41 807.95 170.17 C 826.62 176.20 841.76 187.13 850.76 204.83 C 856.85 216.80 859.82 230.33 860.17 243.71 C 860.62 261.10 857.20 277.81 853.06 294.59 C 844.46 329.37 831.25 362.24 820.12 396.21 C 826.33 390.80 833.34 386.09 841.18 383.41 C 852.66 379.49 867.34 379.77 878.28 385.22 C 889.10 390.61 896.52 400.75 900.23 412.08 C 913.81 453.57 870.89 504.92 849.23 536.97 C 843.40 545.59 838.33 554.41 833.51 563.61 C 832.36 565.82 830.70 569.39 828.19 570.19 C 825.53 567.17 831.71 558.33 833.43 555.46 C 838.46 547.04 843.20 538.51 848.72 530.39 C 867.64 502.53 901.00 461.69 898.90 426.15 C 898.23 414.86 893.28 401.70 884.61 394.19 C 875.81 386.55 864.55 383.94 853.15 384.76 C 843.28 386.54 834.29 390.32 826.20 396.28 C 823.66 398.14 821.24 400.66 818.62 402.31 C 817.49 403.02 816.86 403.11 815.58 402.85 C 815.09 402.16 814.84 402.02 814.78 401.13 C 814.54 396.92 821.91 378.06 823.67 373.17 C 836.25 338.18 855.72 286.70 856.47 249.93 C 856.56 247.00 856.51 244.06 856.32 241.13 C 856.14 238.20 855.81 235.28 855.35 232.38 C 854.89 229.48 854.30 226.60 853.57 223.76 C 852.85 220.91 851.99 218.11 851.00 215.34 C 844.75 198.06 832.62 185.27 816.01 177.55 C 795.38 167.97 772.53 168.19 751.34 175.97 C 694.80 196.71 655.94 260.03 631.85 311.85 C 630.73 314.27 629.12 318.00 626.48 318.96 L 625.92 318.28 C 625.81 311.71 630.53 304.13 633.39 298.34 C 646.76 271.26 662.83 244.89 682.67 222.04 C 707.57 193.37 740.06 168.95 779.14 166.21 Z" fill="#010101" fill-rule="nonzero" node-id="28" stroke="none" target-height="404.09167" target-width="288.00098" target-x="625.806" target-y="166.09734"></path><path d="M 254.61 186.20 C 259.39 185.73 264.55 185.78 269.33 186.23 C 296.58 188.75 316.11 207.74 332.73 227.84 C 350.06 248.81 363.20 273.11 373.63 298.15 C 375.33 302.22 378.86 309.12 378.45 313.46 C 377.69 314.40 377.77 314.36 376.57 314.51 C 375.57 313.93 375.09 313.23 374.61 312.20 C 373.29 309.35 372.65 306.14 371.43 303.22 C 366.95 292.49 362.20 281.81 356.67 271.57 C 340.88 242.34 314.16 202.43 280.64 192.66 C 262.98 187.51 240.15 189.91 224.06 198.88 C 202.67 210.81 189.88 236.24 183.61 258.92 C 173.47 295.60 187.84 335.97 203.58 369.16 C 205.32 372.83 207.80 376.13 209.51 379.74 C 210.10 380.99 209.88 381.66 209.51 382.93 C 207.70 383.76 195.44 376.04 192.40 374.83 C 189.20 373.56 185.94 372.81 182.51 372.47 C 181.64 372.39 180.76 372.32 179.88 372.28 C 179.00 372.24 178.12 372.22 177.25 372.22 C 176.37 372.23 175.49 372.25 174.61 372.30 C 173.73 372.34 172.85 372.41 171.98 372.50 C 171.10 372.59 170.23 372.70 169.36 372.83 C 168.49 372.96 167.62 373.12 166.76 373.29 C 165.90 373.46 165.04 373.66 164.19 373.88 C 163.34 374.09 162.49 374.33 161.65 374.59 C 160.81 374.85 159.97 375.13 159.15 375.43 C 158.32 375.73 157.50 376.05 156.69 376.39 C 155.88 376.73 155.08 377.09 154.28 377.47 C 153.49 377.85 152.71 378.25 151.93 378.66 C 151.16 379.08 150.39 379.52 149.64 379.98 C 148.89 380.43 148.15 380.90 147.42 381.40 C 146.69 381.89 145.97 382.40 145.27 382.93 C 144.57 383.45 143.88 384.00 143.20 384.56 C 141.94 385.66 140.74 386.81 139.59 388.03 C 138.44 389.24 137.35 390.50 136.32 391.81 C 135.29 393.13 134.32 394.49 133.42 395.89 C 132.52 397.29 131.68 398.74 130.91 400.22 C 112.73 434.50 141.92 471.14 157.11 500.62 C 166.52 518.88 174.77 537.24 180.84 556.90 C 181.64 559.49 182.97 562.38 181.62 564.93 L 180.38 565.21 L 180.62 564.61 L 179.95 565.11 C 179.05 564.58 178.87 564.42 178.42 563.43 C 176.82 559.88 175.99 555.80 174.86 552.07 C 173.49 547.55 171.86 543.12 170.25 538.69 C 164.54 522.89 156.37 507.25 148.11 492.64 C 141.16 480.34 133.77 468.33 128.37 455.23 C 121.16 437.74 117.98 419.75 125.60 401.78 C 125.95 400.94 126.32 400.11 126.71 399.29 C 127.11 398.47 127.52 397.66 127.95 396.86 C 128.39 396.06 128.84 395.27 129.31 394.49 C 129.79 393.72 130.28 392.95 130.79 392.20 C 131.30 391.45 131.83 390.71 132.38 389.98 C 132.93 389.26 133.50 388.55 134.09 387.85 C 134.67 387.15 135.28 386.47 135.90 385.81 C 136.52 385.14 137.15 384.49 137.81 383.86 C 138.46 383.22 139.13 382.61 139.81 382.01 C 140.50 381.41 141.20 380.83 141.91 380.26 C 142.62 379.70 143.35 379.15 144.09 378.62 C 144.84 378.10 145.59 377.59 146.36 377.10 C 147.12 376.61 147.90 376.14 148.69 375.69 C 149.49 375.24 150.29 374.81 151.10 374.40 C 151.91 374.00 152.74 373.61 153.57 373.24 C 154.40 372.87 155.25 372.53 156.09 372.20 C 171.91 366.02 186.68 367.78 201.91 374.40 C 189.78 352.81 179.22 321.31 176.69 296.55 C 173.69 267.20 183.43 235.40 202.18 212.62 C 215.96 195.88 233.29 188.19 254.61 186.20 Z" fill="#010101" fill-rule="nonzero" node-id="30" stroke="none" target-height="379.48297" target-width="266.12003" target-x="112.73499" target-y="185.73102"></path><path d="M 475.55 137.77 C 490.27 137.21 504.95 137.88 519.66 137.78 C 544.53 137.60 569.77 136.86 594.60 138.56 C 594.74 150.46 593.56 162.62 592.83 174.51 L 589.17 234.85 L 587.03 273.18 C 586.75 277.79 587.03 283.12 585.91 287.58 C 585.57 288.96 585.27 289.50 584.10 290.27 L 583.18 289.96 C 582.03 288.65 582.25 287.88 582.26 286.18 C 582.31 274.95 583.82 263.48 584.50 252.25 L 587.80 195.42 C 588.93 177.76 590.43 159.96 590.60 142.26 C 577.95 141.69 565.29 141.31 552.62 141.11 C 513.07 141.07 473.69 141.34 434.15 142.64 C 433.75 153.93 434.87 165.55 435.20 176.86 L 437.62 253.36 C 437.92 263.10 439.28 278.34 438.58 287.42 C 438.48 288.83 438.29 289.71 437.37 290.78 L 436.38 290.40 C 435.92 289.70 435.52 289.06 435.28 288.25 C 434.00 283.96 434.12 258.87 433.89 252.53 L 431.99 196.50 C 431.31 180.29 430.26 163.86 430.25 147.65 C 430.25 145.11 430.12 142.18 431.38 139.91 C 436.96 137.22 467.10 137.87 475.55 137.77 Z" fill="#010101" fill-rule="nonzero" node-id="32" stroke="none" target-height="153.91902" target-width="164.61697" target-x="430.12204" target-y="136.859"></path><path d="M 764.88 239.15 C 765.85 239.55 766.29 239.99 766.98 240.76 C 767.25 242.46 766.60 243.23 765.65 244.68 C 762.09 250.16 757.77 255.36 753.97 260.70 C 746.90 270.63 740.14 280.78 733.68 291.12 C 720.60 312.07 708.80 333.72 698.28 356.06 C 693.45 366.35 689.63 377.81 684.17 387.73 L 682.54 387.21 C 681.96 386.45 681.69 386.39 681.69 385.38 C 681.70 380.52 686.89 371.44 689.00 366.75 C 693.20 357.25 697.63 347.86 702.29 338.58 C 706.95 329.30 711.83 320.13 716.94 311.09 C 722.05 302.05 727.38 293.14 732.93 284.36 C 738.47 275.58 744.23 266.94 750.20 258.45 C 754.76 252.03 759.35 244.74 764.88 239.15 Z" fill="#010101" fill-rule="nonzero" node-id="34" stroke="none" target-height="148.57599" target-width="85.56305" target-x="681.686" target-y="239.151"></path><path d="M 837.60 708.40 C 838.26 708.39 839.22 708.29 839.85 708.47 C 840.58 708.67 840.80 708.95 841.10 709.61 C 844.02 716.06 846.90 880.88 844.41 887.50 C 843.51 887.24 842.91 886.88 842.14 886.37 C 840.60 883.26 841.44 849.00 841.43 842.51 C 841.40 814.02 840.40 785.71 839.42 757.24 C 838.85 740.97 838.72 724.65 837.60 708.40 Z" fill="#010101" fill-rule="nonzero" node-id="36" stroke="none" target-height="179.20593" target-width="9.299011" target-x="837.602" target-y="708.2911"></path><path d="M 252.80 248.72 C 252.99 248.79 253.18 248.85 253.37 248.94 C 257.16 250.73 267.08 279.12 269.46 285.43 C 275.00 300.07 309.76 400.73 308.65 404.96 C 308.49 405.58 308.12 406.12 307.86 406.71 L 306.66 406.30 C 305.37 404.89 304.70 403.32 304.07 401.53 C 300.54 391.37 297.71 380.79 294.41 370.53 C 286.89 346.88 278.98 323.36 270.68 299.98 C 265.11 284.28 258.14 269.10 252.59 253.46 C 251.85 251.37 251.85 250.74 252.80 248.72 Z" fill="#010101" fill-rule="nonzero" node-id="38" stroke="none" target-height="157.984" target-width="57.917007" target-x="251.846" target-y="248.723"></path><path d="M 279.28 811.24 C 280.21 811.36 280.88 811.65 281.73 812.05 L 282.02 812.99 C 280.28 816.77 277.07 820.33 274.61 823.72 C 268.75 831.77 262.61 839.69 257.04 847.94 C 256.84 847.90 256.63 847.90 256.44 847.83 C 255.14 847.36 254.92 847.11 254.43 845.92 C 255.45 841.30 275.47 815.80 279.28 811.24 Z" fill="#010101" fill-rule="nonzero" node-id="40" stroke="none" target-height="36.700073" target-width="27.587997" target-x="254.429" target-y="811.24194"></path><path d="M 260.70 761.64 C 261.23 761.71 261.46 761.72 262.00 761.91 C 265.08 763.01 279.69 777.68 280.73 780.57 C 281.26 782.02 280.85 782.32 280.18 783.61 C 276.63 782.56 263.44 768.92 260.95 765.36 C 259.98 763.97 260.38 763.16 260.70 761.64 Z" fill="#010101" fill-rule="nonzero" node-id="42" stroke="none" target-height="21.967041" target-width="21.278015" target-x="259.978" target-y="761.63995"></path><path d="M 752.77 763.87 C 752.94 763.91 753.12 763.92 753.29 763.98 C 754.65 764.47 754.89 764.57 755.40 765.84 C 754.35 768.38 737.96 780.28 734.46 783.10 C 733.80 783.00 733.25 782.72 732.64 782.47 C 732.27 781.82 731.88 781.60 732.17 780.82 C 733.61 776.99 748.80 766.23 752.77 763.87 Z" fill="#010101" fill-rule="nonzero" node-id="44" stroke="none" target-height="19.226929" target-width="23.518982" target-x="731.879" target-y="763.869"></path><path d="M 280.16 826.81 C 281.35 827.36 281.97 827.64 282.79 828.72 C 282.65 832.37 270.31 847.17 267.43 850.61 C 267.30 850.58 267.16 850.57 267.04 850.51 C 265.78 849.94 265.71 849.75 265.25 848.52 C 266.30 843.42 276.64 831.87 280.16 826.81 Z" fill="#010101" fill-rule="nonzero" node-id="46" stroke="none" target-height="23.804077" target-width="17.533997" target-x="265.255" target-y="826.80994"></path><path d="M 365.20 175.66 L 366.99 176.04 C 368.29 176.97 369.03 178.09 369.86 179.43 C 372.60 183.83 378.77 193.60 379.96 198.27 C 380.16 199.09 379.96 199.84 379.77 200.64 C 377.68 200.23 377.15 199.99 375.90 198.29 C 372.60 193.79 364.48 180.75 365.20 175.66 Z" fill="#010101" fill-rule="nonzero" node-id="48" stroke="none" target-height="24.981995" target-width="15.681" target-x="364.483" target-y="175.658"></path><path d="M 758.62 768.89 C 759.78 768.93 761.11 768.83 762.15 769.44 C 762.74 769.78 762.70 770.25 762.88 770.86 C 760.97 775.07 748.20 782.42 743.88 785.57 L 742.64 786.17 C 741.38 785.67 741.24 785.79 740.67 784.59 C 743.76 778.49 753.91 774.46 758.62 768.89 Z" fill="#010101" fill-rule="nonzero" node-id="50" stroke="none" target-height="17.340942" target-width="22.200989" target-x="740.674" target-y="768.83307"></path><path d="M 647.69 178.16 C 649.03 178.49 649.68 178.67 650.42 179.86 C 650.01 184.05 642.19 198.39 639.43 201.74 C 638.66 201.60 638.16 201.46 637.45 201.08 C 636.61 200.64 636.78 200.52 636.53 199.68 C 639.03 192.48 643.95 184.83 647.69 178.16 Z" fill="#010101" fill-rule="nonzero" node-id="52" stroke="none" target-height="23.58197" target-width="13.891052" target-x="636.527" target-y="178.16202"></path><path d="M 349.15 191.24 C 349.33 191.27 349.51 191.29 349.69 191.33 C 352.63 192.01 362.80 206.53 364.42 209.76 C 365.16 211.24 364.98 211.72 364.52 213.29 C 364.27 213.22 364.02 213.17 363.77 213.09 C 360.49 212.02 350.74 198.31 349.00 194.75 C 348.28 193.27 348.58 192.73 349.15 191.24 Z" fill="#010101" fill-rule="nonzero" node-id="54" stroke="none" target-height="22.056992" target-width="16.881989" target-x="348.281" target-y="191.237"></path><path d="M 732.92 825.99 C 737.15 828.35 747.35 838.82 750.32 842.93 C 750.38 844.50 749.93 844.91 749.14 846.23 C 747.56 845.23 746.21 843.97 744.84 842.71 C 741.56 839.70 731.75 831.48 731.56 827.33 L 732.92 825.99 Z" fill="#010101" fill-rule="nonzero" node-id="56" stroke="none" target-height="20.241943" target-width="18.815979" target-x="731.56" target-y="825.98505"></path><path d="M 738.18 820.24 C 738.33 820.25 738.47 820.26 738.61 820.29 C 741.53 820.82 754.27 833.36 756.03 836.44 C 756.71 837.64 756.37 838.10 756.05 839.37 C 755.50 839.28 755.28 839.27 754.78 839.13 C 752.03 838.39 739.38 825.78 738.02 823.06 C 737.42 821.88 737.80 821.43 738.18 820.24 Z" fill="#010101" fill-rule="nonzero" node-id="58" stroke="none" target-height="19.135986" target-width="19.291016" target-x="737.423" target-y="820.23804"></path><path d="M 254.97 769.68 C 258.00 771.19 271.59 783.81 272.49 786.70 C 272.71 787.41 271.76 788.52 271.38 789.15 C 268.19 787.94 256.48 776.01 253.84 773.00 C 253.60 771.42 254.16 771.02 254.97 769.68 Z" fill="#010101" fill-rule="nonzero" node-id="60" stroke="none" target-height="19.470032" target-width="19.113998" target-x="253.601" target-y="769.68097"></path></svg>